<mxfile host="app.diagrams.net" agent="Mozilla/5.0 (Windows NT 10.0; Win64; x64) AppleWebKit/537.36 (KHTML, like Gecko) Chrome/133.0.0.0 Safari/537.36" version="26.0.16">
  <diagram name="Page-1" id="2EOkyX_Ve_d6yKe3OolG">
    <mxGraphModel dx="1797" dy="944" grid="0" gridSize="10" guides="1" tooltips="1" connect="1" arrows="1" fold="1" page="0" pageScale="1" pageWidth="850" pageHeight="1100" math="0" shadow="0">
      <root>
        <mxCell id="0" />
        <mxCell id="1" parent="0" />
        <mxCell id="rLvE-9BdrJ7g1eG5cLNG-4" value="" style="edgeStyle=orthogonalEdgeStyle;rounded=0;orthogonalLoop=1;jettySize=auto;html=1;entryX=0;entryY=0.5;entryDx=0;entryDy=0;" edge="1" parent="1" target="rLvE-9BdrJ7g1eG5cLNG-3">
          <mxGeometry relative="1" as="geometry">
            <mxPoint x="162.99999999999994" y="47.29803282001941" as="sourcePoint" />
            <mxPoint x="237.04248171318517" y="47.29803282001941" as="targetPoint" />
            <Array as="points">
              <mxPoint x="163" y="47" />
            </Array>
          </mxGeometry>
        </mxCell>
        <mxCell id="rLvE-9BdrJ7g1eG5cLNG-1" value="&lt;b&gt;MASTER INIT:&lt;/b&gt;&lt;div&gt;P1.4-1.7&amp;nbsp; &amp;nbsp; &amp;nbsp; &amp;nbsp; &amp;nbsp; keypad in&lt;/div&gt;&lt;div&gt;P2.0-2.3&amp;nbsp; &amp;nbsp; &amp;nbsp; &amp;nbsp; keypad out&lt;/div&gt;&lt;div&gt;&lt;div&gt;P1.3&amp;nbsp; &amp;nbsp; &amp;nbsp; &amp;nbsp; &amp;nbsp; &amp;nbsp; &amp;nbsp; &amp;nbsp; &amp;nbsp; &amp;nbsp; &amp;nbsp;lcd scl&lt;/div&gt;&lt;/div&gt;&lt;div&gt;P1.2&amp;nbsp; &amp;nbsp; &amp;nbsp; &amp;nbsp; &amp;nbsp; &amp;nbsp; &amp;nbsp; &amp;nbsp; &amp;nbsp; &amp;nbsp; lcd sda&lt;/div&gt;&lt;div&gt;P4.7&amp;nbsp; &amp;nbsp; &amp;nbsp; &amp;nbsp; &amp;nbsp; &amp;nbsp; &amp;nbsp; &amp;nbsp;led bar scl&lt;/div&gt;&lt;div&gt;P4.6&amp;nbsp; &amp;nbsp; &amp;nbsp; &amp;nbsp; &amp;nbsp; &amp;nbsp; &amp;nbsp; led bar sda&lt;/div&gt;&lt;div&gt;P6.0-6.3&amp;nbsp; &amp;nbsp; &amp;nbsp; &amp;nbsp; &amp;nbsp; &amp;nbsp; &amp;nbsp; rgb led&lt;/div&gt;" style="shape=document;whiteSpace=wrap;html=1;boundedLbl=1;size=0.09688207137005818;align=left;" vertex="1" parent="1">
          <mxGeometry x="29" y="20" width="134" height="136" as="geometry" />
        </mxCell>
        <mxCell id="rLvE-9BdrJ7g1eG5cLNG-6" value="" style="edgeStyle=orthogonalEdgeStyle;rounded=0;orthogonalLoop=1;jettySize=auto;html=1;" edge="1" parent="1" source="rLvE-9BdrJ7g1eG5cLNG-3" target="rLvE-9BdrJ7g1eG5cLNG-5">
          <mxGeometry relative="1" as="geometry" />
        </mxCell>
        <mxCell id="rLvE-9BdrJ7g1eG5cLNG-3" value="main" style="ellipse;whiteSpace=wrap;html=1;" vertex="1" parent="1">
          <mxGeometry x="226" y="20" width="120" height="55" as="geometry" />
        </mxCell>
        <mxCell id="rLvE-9BdrJ7g1eG5cLNG-10" value="" style="edgeStyle=orthogonalEdgeStyle;rounded=0;orthogonalLoop=1;jettySize=auto;html=1;" edge="1" parent="1" source="rLvE-9BdrJ7g1eG5cLNG-5">
          <mxGeometry relative="1" as="geometry">
            <mxPoint x="286" y="215" as="targetPoint" />
          </mxGeometry>
        </mxCell>
        <mxCell id="rLvE-9BdrJ7g1eG5cLNG-11" value="Yes" style="edgeLabel;html=1;align=center;verticalAlign=middle;resizable=0;points=[];" vertex="1" connectable="0" parent="rLvE-9BdrJ7g1eG5cLNG-10">
          <mxGeometry x="-0.6064" y="1" relative="1" as="geometry">
            <mxPoint as="offset" />
          </mxGeometry>
        </mxCell>
        <mxCell id="rLvE-9BdrJ7g1eG5cLNG-5" value="is key pressed?" style="rhombus;whiteSpace=wrap;html=1;" vertex="1" parent="1">
          <mxGeometry x="226" y="105" width="120" height="80" as="geometry" />
        </mxCell>
        <mxCell id="rLvE-9BdrJ7g1eG5cLNG-7" value="" style="curved=1;endArrow=classic;html=1;rounded=0;exitX=1;exitY=1;exitDx=0;exitDy=0;entryX=1;entryY=0;entryDx=0;entryDy=0;" edge="1" parent="1" source="rLvE-9BdrJ7g1eG5cLNG-5" target="rLvE-9BdrJ7g1eG5cLNG-5">
          <mxGeometry width="50" height="50" relative="1" as="geometry">
            <mxPoint x="378" y="183" as="sourcePoint" />
            <mxPoint x="428" y="133" as="targetPoint" />
            <Array as="points">
              <mxPoint x="348" y="176" />
              <mxPoint x="386" y="164" />
              <mxPoint x="373" y="124" />
              <mxPoint x="349" y="116" />
            </Array>
          </mxGeometry>
        </mxCell>
        <mxCell id="rLvE-9BdrJ7g1eG5cLNG-8" value="No" style="edgeLabel;html=1;align=center;verticalAlign=middle;resizable=0;points=[];" vertex="1" connectable="0" parent="rLvE-9BdrJ7g1eG5cLNG-7">
          <mxGeometry x="0.2654" y="1" relative="1" as="geometry">
            <mxPoint as="offset" />
          </mxGeometry>
        </mxCell>
        <mxCell id="rLvE-9BdrJ7g1eG5cLNG-36" value="" style="edgeStyle=orthogonalEdgeStyle;rounded=0;orthogonalLoop=1;jettySize=auto;html=1;" edge="1" parent="1" source="rLvE-9BdrJ7g1eG5cLNG-21" target="rLvE-9BdrJ7g1eG5cLNG-22">
          <mxGeometry relative="1" as="geometry" />
        </mxCell>
        <mxCell id="rLvE-9BdrJ7g1eG5cLNG-21" value="get_key()" style="shape=parallelogram;perimeter=parallelogramPerimeter;whiteSpace=wrap;html=1;fixedSize=1;" vertex="1" parent="1">
          <mxGeometry x="226" y="215" width="120" height="45" as="geometry" />
        </mxCell>
        <mxCell id="rLvE-9BdrJ7g1eG5cLNG-37" value="" style="edgeStyle=orthogonalEdgeStyle;rounded=0;orthogonalLoop=1;jettySize=auto;html=1;" edge="1" parent="1" source="rLvE-9BdrJ7g1eG5cLNG-22" target="rLvE-9BdrJ7g1eG5cLNG-35">
          <mxGeometry relative="1" as="geometry" />
        </mxCell>
        <mxCell id="rLvE-9BdrJ7g1eG5cLNG-22" value="process_key()" style="shape=parallelogram;perimeter=parallelogramPerimeter;whiteSpace=wrap;html=1;fixedSize=1;" vertex="1" parent="1">
          <mxGeometry x="56" y="215" width="120" height="45" as="geometry" />
        </mxCell>
        <mxCell id="rLvE-9BdrJ7g1eG5cLNG-39" value="" style="edgeStyle=orthogonalEdgeStyle;rounded=0;orthogonalLoop=1;jettySize=auto;html=1;" edge="1" parent="1" source="rLvE-9BdrJ7g1eG5cLNG-35" target="rLvE-9BdrJ7g1eG5cLNG-38">
          <mxGeometry relative="1" as="geometry" />
        </mxCell>
        <mxCell id="rLvE-9BdrJ7g1eG5cLNG-40" value="Yes" style="edgeLabel;html=1;align=center;verticalAlign=middle;resizable=0;points=[];" vertex="1" connectable="0" parent="rLvE-9BdrJ7g1eG5cLNG-39">
          <mxGeometry x="0.0794" y="-1" relative="1" as="geometry">
            <mxPoint x="-7" y="-1" as="offset" />
          </mxGeometry>
        </mxCell>
        <mxCell id="rLvE-9BdrJ7g1eG5cLNG-42" value="" style="edgeStyle=orthogonalEdgeStyle;rounded=0;orthogonalLoop=1;jettySize=auto;html=1;" edge="1" parent="1" source="rLvE-9BdrJ7g1eG5cLNG-35" target="rLvE-9BdrJ7g1eG5cLNG-41">
          <mxGeometry relative="1" as="geometry" />
        </mxCell>
        <mxCell id="rLvE-9BdrJ7g1eG5cLNG-43" value="No" style="edgeLabel;html=1;align=center;verticalAlign=middle;resizable=0;points=[];" vertex="1" connectable="0" parent="rLvE-9BdrJ7g1eG5cLNG-42">
          <mxGeometry x="-0.3437" y="1" relative="1" as="geometry">
            <mxPoint as="offset" />
          </mxGeometry>
        </mxCell>
        <mxCell id="rLvE-9BdrJ7g1eG5cLNG-35" value="is locked&lt;div&gt;or unlocking?&lt;/div&gt;" style="rhombus;whiteSpace=wrap;html=1;" vertex="1" parent="1">
          <mxGeometry x="56" y="297" width="120" height="80" as="geometry" />
        </mxCell>
        <mxCell id="rLvE-9BdrJ7g1eG5cLNG-45" value="" style="edgeStyle=orthogonalEdgeStyle;rounded=0;orthogonalLoop=1;jettySize=auto;html=1;" edge="1" parent="1" source="rLvE-9BdrJ7g1eG5cLNG-38" target="rLvE-9BdrJ7g1eG5cLNG-44">
          <mxGeometry relative="1" as="geometry" />
        </mxCell>
        <mxCell id="rLvE-9BdrJ7g1eG5cLNG-38" value="check_password()" style="shape=parallelogram;perimeter=parallelogramPerimeter;whiteSpace=wrap;html=1;fixedSize=1;" vertex="1" parent="1">
          <mxGeometry x="226" y="314.5" width="120" height="45" as="geometry" />
        </mxCell>
        <mxCell id="rLvE-9BdrJ7g1eG5cLNG-41" value="update status, pattern, cursor, period, etc" style="rounded=0;whiteSpace=wrap;html=1;" vertex="1" parent="1">
          <mxGeometry x="56" y="415" width="120" height="45" as="geometry" />
        </mxCell>
        <mxCell id="rLvE-9BdrJ7g1eG5cLNG-44" value="update status" style="rounded=0;whiteSpace=wrap;html=1;" vertex="1" parent="1">
          <mxGeometry x="226" y="415" width="120" height="45" as="geometry" />
        </mxCell>
        <mxCell id="rLvE-9BdrJ7g1eG5cLNG-46" value="" style="edgeStyle=orthogonalEdgeStyle;rounded=0;orthogonalLoop=1;jettySize=auto;html=1;entryX=0;entryY=0.5;entryDx=0;entryDy=0;" edge="1" parent="1" target="rLvE-9BdrJ7g1eG5cLNG-48">
          <mxGeometry relative="1" as="geometry">
            <mxPoint x="116" y="460" as="sourcePoint" />
            <Array as="points">
              <mxPoint x="116" y="522" />
            </Array>
          </mxGeometry>
        </mxCell>
        <mxCell id="rLvE-9BdrJ7g1eG5cLNG-47" value="" style="edgeStyle=orthogonalEdgeStyle;rounded=0;orthogonalLoop=1;jettySize=auto;html=1;entryX=1;entryY=0.5;entryDx=0;entryDy=0;" edge="1" parent="1" target="rLvE-9BdrJ7g1eG5cLNG-48">
          <mxGeometry relative="1" as="geometry">
            <mxPoint x="286" y="460" as="sourcePoint" />
            <Array as="points">
              <mxPoint x="286" y="523" />
            </Array>
          </mxGeometry>
        </mxCell>
        <mxCell id="rLvE-9BdrJ7g1eG5cLNG-52" value="" style="edgeStyle=orthogonalEdgeStyle;rounded=0;orthogonalLoop=1;jettySize=auto;html=1;" edge="1" parent="1" source="rLvE-9BdrJ7g1eG5cLNG-48" target="rLvE-9BdrJ7g1eG5cLNG-51">
          <mxGeometry relative="1" as="geometry" />
        </mxCell>
        <mxCell id="rLvE-9BdrJ7g1eG5cLNG-48" value="update_rgb_led()" style="shape=parallelogram;perimeter=parallelogramPerimeter;whiteSpace=wrap;html=1;fixedSize=1;" vertex="1" parent="1">
          <mxGeometry x="136" y="500" width="120" height="45" as="geometry" />
        </mxCell>
        <mxCell id="rLvE-9BdrJ7g1eG5cLNG-54" value="" style="edgeStyle=orthogonalEdgeStyle;rounded=0;orthogonalLoop=1;jettySize=auto;html=1;" edge="1" parent="1" source="rLvE-9BdrJ7g1eG5cLNG-51" target="rLvE-9BdrJ7g1eG5cLNG-53">
          <mxGeometry relative="1" as="geometry" />
        </mxCell>
        <mxCell id="rLvE-9BdrJ7g1eG5cLNG-51" value="i2c_write()" style="shape=parallelogram;perimeter=parallelogramPerimeter;whiteSpace=wrap;html=1;fixedSize=1;" vertex="1" parent="1">
          <mxGeometry x="136" y="585" width="120" height="45" as="geometry" />
        </mxCell>
        <mxCell id="rLvE-9BdrJ7g1eG5cLNG-53" value="return" style="ellipse;whiteSpace=wrap;html=1;" vertex="1" parent="1">
          <mxGeometry x="136" y="670" width="120" height="55" as="geometry" />
        </mxCell>
        <mxCell id="rLvE-9BdrJ7g1eG5cLNG-57" value="" style="edgeStyle=orthogonalEdgeStyle;rounded=0;orthogonalLoop=1;jettySize=auto;html=1;" edge="1" parent="1" source="rLvE-9BdrJ7g1eG5cLNG-55" target="rLvE-9BdrJ7g1eG5cLNG-56">
          <mxGeometry relative="1" as="geometry">
            <Array as="points">
              <mxPoint x="753" y="48" />
              <mxPoint x="753" y="48" />
            </Array>
          </mxGeometry>
        </mxCell>
        <mxCell id="rLvE-9BdrJ7g1eG5cLNG-55" value="&lt;b&gt;LED BAR SLAVE INIT:&lt;/b&gt;&lt;div&gt;&lt;br&gt;&lt;/div&gt;" style="shape=document;whiteSpace=wrap;html=1;boundedLbl=1;size=0.09688207137005818;align=left;" vertex="1" parent="1">
          <mxGeometry x="607" y="20" width="134" height="136" as="geometry" />
        </mxCell>
        <mxCell id="rLvE-9BdrJ7g1eG5cLNG-56" value="main" style="ellipse;whiteSpace=wrap;html=1;" vertex="1" parent="1">
          <mxGeometry x="798" y="20" width="120" height="55" as="geometry" />
        </mxCell>
      </root>
    </mxGraphModel>
  </diagram>
</mxfile>
